<?xml version="1.0" standalone="no"?><!DOCTYPE svg PUBLIC "-//W3C//DTD SVG 1.1//EN" "http://www.w3.org/Graphics/SVG/1.1/DTD/svg11.dtd"><svg t="1661323057273" class="icon" viewBox="0 0 1024 1024" version="1.1" xmlns="http://www.w3.org/2000/svg" p-id="3849" xmlns:xlink="http://www.w3.org/1999/xlink" width="200" height="200"><defs><style type="text/css">@font-face { font-family: "feedback-iconfont"; src: url("//at.alicdn.com/t/font_1031158_u69w8yhxdu.woff2?t=1630033759944") format("woff2"), url("//at.alicdn.com/t/font_1031158_u69w8yhxdu.woff?t=1630033759944") format("woff"), url("//at.alicdn.com/t/font_1031158_u69w8yhxdu.ttf?t=1630033759944") format("truetype"); }
</style></defs><path d="M512 23.272727a486.760727 486.760727 0 0 1 217.786182 51.083637 23.272727 23.272727 0 1 1-20.770909 41.658181A440.226909 440.226909 0 0 0 512 69.818182C267.787636 69.818182 69.818182 267.787636 69.818182 512s197.969455 442.181818 442.181818 442.181818 442.181818-197.969455 442.181818-442.181818c0-15.627636-0.814545-31.150545-2.420363-46.545455H837.818182l116.363636-221.090909c15.511273 40.727273 27.147636 81.454545 34.909091 122.181819A651.636364 651.636364 0 0 1 1000.727273 488.727273l-0.605091-1.28c0.407273 8.157091 0.605091 16.349091 0.605091 24.552727 0 269.917091-218.810182 488.727273-488.727273 488.727273S23.272727 781.917091 23.272727 512 242.082909 23.272727 512 23.272727z" p-id="3850" fill="#8a8a8a"></path><path d="M640 314.181818a23.272727 23.272727 0 0 1 23.214545 21.527273L663.272727 337.454545v69.818182a23.272727 23.272727 0 0 1-1.582545 8.436364l-0.872727 1.978182-186.181819 372.363636a23.272727 23.272727 0 0 1-42.379636-19.165091l0.744727-1.652363L616.727273 401.768727v-41.053091L384 360.727273a23.272727 23.272727 0 0 1-23.214545-21.527273L360.727273 337.454545a23.272727 23.272727 0 0 1 21.527272-23.214545L384 314.181818h256z" p-id="3851" fill="#8a8a8a"></path></svg>