<?xml version="1.0" standalone="no"?><!DOCTYPE svg PUBLIC "-//W3C//DTD SVG 1.1//EN" "http://www.w3.org/Graphics/SVG/1.1/DTD/svg11.dtd"><svg t="1661323042964" class="icon" viewBox="0 0 1024 1024" version="1.1" xmlns="http://www.w3.org/2000/svg" p-id="3609" xmlns:xlink="http://www.w3.org/1999/xlink" width="200" height="200"><defs><style type="text/css">@font-face { font-family: "feedback-iconfont"; src: url("//at.alicdn.com/t/font_1031158_u69w8yhxdu.woff2?t=1630033759944") format("woff2"), url("//at.alicdn.com/t/font_1031158_u69w8yhxdu.woff?t=1630033759944") format("woff"), url("//at.alicdn.com/t/font_1031158_u69w8yhxdu.ttf?t=1630033759944") format("truetype"); }
</style></defs><path d="M870.4 256h-194.56c10.24-15.36 15.36-33.28 15.36-51.2 0-56.32-46.08-102.4-102.4-102.4-30.72 0-58.88 12.8-76.8 35.84-17.92-23.04-46.08-35.84-76.8-35.84-56.32 0-102.4 46.08-102.4 102.4 0 17.92 5.12 35.84 15.36 51.2H153.6c-28.16 0-51.2 23.04-51.2 51.2v51.2c0 28.16 23.04 51.2 51.2 51.2v409.6c0 56.32 46.08 102.4 102.4 102.4h512c56.32 0 102.4-46.08 102.4-102.4V409.6c28.16 0 51.2-23.04 51.2-51.2v-51.2c0-28.16-23.04-51.2-51.2-51.2zM588.8 153.6c28.16 0 51.2 23.04 51.2 51.2s-23.04 51.2-51.2 51.2-51.2-23.04-51.2-51.2 23.04-51.2 51.2-51.2z m-153.6 0c28.16 0 51.2 23.04 51.2 51.2s-23.04 51.2-51.2 51.2-51.2-23.04-51.2-51.2 23.04-51.2 51.2-51.2z m51.2 716.8h-230.4c-28.16 0-51.2-23.04-51.2-51.2v-153.6h281.6v204.8z m0-256H204.8v-204.8h281.6v204.8z m332.8 204.8c0 28.16-23.04 51.2-51.2 51.2h-230.4v-204.8h281.6v153.6z m0-204.8H537.6v-204.8h281.6v204.8z m25.6-256H179.2c-15.36 0-25.6-10.24-25.6-25.6s10.24-25.6 25.6-25.6h665.6c15.36 0 25.6 10.24 25.6 25.6s-10.24 25.6-25.6 25.6z" p-id="3610" fill="#ea9518"></path></svg>